<!-- Generated by scripts/nameplates.ts. Noto Sans SC Black (SIL OFL 1.1). -->
<svg xmlns="http://www.w3.org/2000/svg" viewBox="0 -122.0 1393.6 244.0"><path id="accent" d="M19.3-81.1L19.3-81.1L38.1-104.8Q43.6-102.3 50.4-98.6Q57.2-95 63.7-91.5Q70.2-88.0 74.3-85L74.3-85L67.9-76.4L96.1-76.4Q94.5-79.8 92.5-83.9L92.5-83.9Q88.1-92.0 84.3-98.6L84.3-98.6L114.7-110Q119.0-103.6 123.4-96.3Q127.7-88.9 130.2-83.4L130.2-83.4L113.6-76.4L146.8-76.4L146.8-61.8Q147.9-64.8 148.8-68.2L148.8-68.2Q154.5-86.8 157.2-106.6L157.2-106.6L188.6-101.4Q187.0-91.6 185.0-82.0L185.0-82.0L228.4-82.0L228.4-50.9L176.1-50.9Q173.6-44.1 171.1-38.2L171.1-38.2L205.9-38.2L211.5-39.8L230.9-25.9Q223.1-14.5 212.7-2.7L212.7-2.7Q209.0 1.4 205.4 5L205.4 5L205.4 16.4L229.0 16.4L229.0 45.7L205.4 45.7L205.4 76.4Q205.4 86.8 203.3 93.3Q201.1 99.8 194.0 103.4L194.0 103.4Q187.2 107.0 178.4 107.8Q169.5 108.6 158.1 108.6L158.1 108.6Q157.5 102.0 155.0 93.5Q152.5 85.0 149.7 78.6L149.7 78.6Q155.9 78.9 162.3 79.0Q168.8 79.1 171.1 79.1Q173.4 79.1 174.2 78.4Q175.0 77.7 175.0 75.9L175.0 75.9L175.0 45.7L149.0 45.7L149.0 16.4L175.0 16.4L175.0-2.3Q178.6-5.7 182.5-9.8L182.5-9.8L157.7-9.8L157.7-24.1Q155.9-25.5 153.6-26.8L153.6-26.8Q148.4-29.8 143.0-32.6Q137.7-35.5 133.8-37.3L133.8-37.3Q136.5-40.9 139.0-45.2L139.0-45.2L110.0-45.2Q109.7-34.8 109.3-24.3L109.3-24.3L147.7-24.3L147.7-22.0Q147.5-19.8 147.5-16.8Q147.5-13.9 147.2-12.0L147.2-12.0Q146.3 14.1 145.2 33.0Q144.0 51.8 142.8 64.4Q141.5 77.0 139.7 84.3Q137.9 91.6 135.4 95.0L135.4 95.0Q131.8 100.0 128.1 102.3Q124.5 104.5 119.7 105.7L119.7 105.7Q115.9 106.6 110.3 106.8Q104.7 107.0 98.1 107.0L98.1 107.0Q97.7 100.5 95.6 92.0L95.6 92.0Q93.8 84.3 90.9 78.6L90.9 78.6Q83.8 95.0 72.7 108.4L72.7 108.4Q69.0 102.7 62.9 96.5Q56.8 90.2 50.9 86.6L50.9 86.6Q61.3 74.1 67.1 58.2Q72.9 42.3 75.5 24.0Q78.1 5.7 79.0-14.1L79.0-14.1Q79.5-29.5 79.7-45.2L79.7-45.2L65.9-45.2L65.9-73.9L54.5-58.6Q50.9-61.8 44.6-65.8Q38.4-69.8 31.7-73.9Q25.0-78.0 19.3-81.1ZM43.6 106.4L13.6 90.5Q17.7 81.1 22.3 69.0Q27 56.8 31.8 43.1Q36.5 29.3 40.6 15.5L40.6 15.5L67.5 31.8Q64.0 44.3 60.1 57.2Q56.1 70 52.0 82.4Q47.9 94.8 43.6 106.4L43.6 106.4ZM12-20.7L12-20.7L30.9-44.5Q36.1-42.0 42.8-38.6Q49.5-35.2 55.9-31.8Q62.2-28.4 66.3-25.7L66.3-25.7L46.8 0.9Q43.1-2.0 37-5.9Q30.9-9.8 24.2-13.6Q17.5-17.5 12-20.7ZM91.3 77.5L91.3 77.5Q94.7 78.0 97.7 78.0L97.7 78.0Q100.9 78.2 103.1 78.2L103.1 78.2Q105.2 78.2 106.7 77.5Q108.1 76.8 109.7 74.5L109.7 74.5Q111.5 71.8 113.0 62.4Q114.5 53.0 115.9 33.4L115.9 33.4Q116.5 21.8 117.2 5.5L117.2 5.5L107.2 5.5Q105.6 20.9 103.1 35.5L103.1 35.5Q99.5 56.6 92.2 75L92.2 75Q91.8 76.4 91.3 77.5Z M346.8-14.8L343.0-45L363.9-47.5Q362.3-74.5 361.8-105.7L361.8-105.7L396.4-105.7Q396.4-76.8 397.3-51.6L397.3-51.6L461.2-59.1L465.0-29.5L433.4-25.7L459.6-9.8Q452.5 6.8 442.1 23.0Q431.6 39.1 418.9 53.4L418.9 53.4Q418.0 54.5 417.1 55.5L417.1 55.5Q417.3 55.7 417.5 56.1L417.5 56.1Q423.4 65.2 431.2 66.8L431.2 66.8Q434.8 67.3 436.6 59.2Q438.4 51.1 439.3 33.4L439.3 33.4Q442.5 37.0 447.9 41.0Q453.2 45.0 458.5 48.4Q463.9 51.8 467.1 53.4L467.1 53.4Q463.9 76.6 458.3 88.6Q452.7 100.7 446.0 104.7Q439.3 108.6 432.7 108.2L432.7 108.2Q415.2 106.1 403.2 95.9L403.2 95.9Q395.9 89.8 390.2 80.7L390.2 80.7Q376.2 91.8 361.4 99.8L361.4 99.8Q356.6 93.9 349.5 86.9Q342.3 80 335.2 75.2L335.2 75.2Q351.6 68.4 366.6 57.7L366.6 57.7Q371.8 53.9 376.8 49.8L376.8 49.8Q373.4 38.0 371.2 24.1L371.2 24.1Q367.7 5.5 365.7-17.0L365.7-17.0L346.8-14.8ZM254.8-54.8L254.8-83.6L319.6-83.6L325.0-84.8L346.2-77.7Q341.8-40.5 332.5-8.2L332.5-8.2Q328.9 3.9 324.6 15.2L324.6 15.2Q330.7 23.4 336.4 31.1L336.4 31.1Q345.5 43.9 351.2 54.3L351.2 54.3L325.9 77.7Q320.7 67.0 312.3 53.6L312.3 53.6Q310.7 51.4 309.1 48.9L309.1 48.9Q308.7 49.3 308.4 49.8L308.4 49.8Q293.9 75.7 273.4 94.3L273.4 94.3Q270.9 90.2 266.7 85.1Q262.5 80 258.1 75.2Q253.7 70.5 249.6 67.5L249.6 67.5Q262.7 56.8 273.7 41.1L273.7 41.1Q280.9 30.2 287.3 17.7L287.3 17.7Q280.0 7.7 272.5-2.0L272.5-2.0Q261.8-16.1 252.3-28.4L252.3-28.4L274.6-47.5Q284.1-35.7 295.0-22.3L295.0-22.3Q297.7-18.9 300.5-15.5L300.5-15.5Q303.7-24.8 306.2-34.3L306.2-34.3Q308.7-44.5 310.5-54.8L310.5-54.8L254.8-54.8ZM404.3-89.5L404.3-89.5L428.0-106.8Q432.5-102.0 438.0-96.3Q443.4-90.5 448.7-85Q453.9-79.5 457.1-75.2L457.1-75.2L431.8-55.7Q429.1-60.2 424.2-66.1Q419.3-72.0 414.1-78.2Q408.9-84.3 404.3-89.5ZM433.2-25.5L399.3-21.4Q400.0-13.0 400.9-5.2L400.9-5.2Q402.7 9.3 405.0 21.1L405.0 21.1Q411.4 13.4 416.8 5L416.8 5Q426.6-10 433.2-25.5L433.2-25.5Z M540.5-78.2L540.5-105.2L571.9-105.2L571.9-78.2L609.9-78.2L609.9-48.4L571.9-48.4L571.9-35.2L618.7-35.2L618.7-5.5L571.9-5.5L571.9 7.0L614.9 7.0L614.9 63.0Q614.9 72.0 613.2 78.0Q611.4 83.9 606.0 87.5L606.0 87.5Q600.5 90.9 593.9 91.7Q587.4 92.5 579.4 92.3L579.4 92.3Q578.9 86.1 576.7 78.2L576.7 78.2Q574.2 70.7 571.9 65L571.9 65L571.9 108.6L540.5 108.6L540.5 36.4L528.0 36.4L528.0 90.9L498.7 90.9L498.7 7.0L540.5 7.0L540.5-5.5L490.8-5.5L490.8-35.2L508.9-35.2Q507.4-35.9 505.8-36.8L505.8-36.8Q500.5-39.1 495.1-41.1Q489.6-43.2 485.8-44.5L485.8-44.5Q492.4-55.2 497.6-71.4Q502.8-87.5 505.5-103.4L505.5-103.4L535.8-97.3Q533.7-87.7 531.2-78.2L531.2-78.2L540.5-78.2ZM666.4 71.6L666.4-102.3L698.0-102.3L698.0 71.8Q698.0 84.3 695.4 91.4Q692.8 98.4 686.0 102.5L686.0 102.5Q678.9 106.4 668.7 107.6Q658.5 108.9 645.1 108.9L645.1 108.9Q644.2 102.0 641.3 92.5Q638.5 83.0 635.3 75.9L635.3 75.9Q643.5 76.1 651.0 76.3Q658.5 76.4 661.4 76.4L661.4 76.4Q664.2 76.4 665.3 75.3Q666.4 74.3 666.4 71.6L666.4 71.6ZM625.3 40.7L625.3-89.3L656.0-89.3L656.0 40.7L625.3 40.7ZM585.3 36.4L571.9 36.4L571.9 64.5Q575.1 64.8 578.3 64.8L578.3 64.8L582.8 64.8Q585.3 64.8 585.3 62.3L585.3 62.3L585.3 36.4ZM515.8-35.2L540.5-35.2L540.5-48.4L521.4-48.4Q518.7-41.1 515.8-35.2L515.8-35.2Z M829.5-105.2L829.5-105.2L861.3-96.8Q856.7-83.6 851.1-70.5L851.1-70.5L935.8-70.5L935.8-39.1L874.2-39.1L874.2-20.2L929.7-20.2L929.7 9.8L874.2 9.8L874.2 30.2L932.6 30.2L932.6 60.9L874.2 60.9L874.2 108.9L840.1 108.9L840.1-39.1L835.8-39.1Q831.7-31.8 827.6-25L827.6-25Q817.4-8.9 807.0 3.2L807.0 3.2Q804.5 0 799.8-4.4Q795.1-8.9 790.4-13.2Q785.6-17.5 782.0-20L782.0-20Q792.0-30 800.8-43.8Q809.7-57.5 817.1-73.3Q824.5-89.1 829.5-105.2ZM766.3-106.1L766.3-106.1L798.3-95.9Q791.1-76.6 781.1-56.6L781.1-56.6Q779.2-53.2 777.4-49.8L777.4-49.8L777.4 108.6L744.0 108.6L744.0 1.4Q739.2 7.0 734.5 12.0L734.5 12.0Q733.1 8.0 729.9 1.1Q726.7-5.7 723.2-12.6Q719.7-19.5 716.7-23.6L716.7-23.6Q726.7-33.6 735.9-46.8Q745.1-60 753.0-75.2Q760.8-90.5 766.3-106.1Z"/><path id="ink" d="M990.7-19.1L990.7-97.0L1144.3-97.0L1144.3 68.9Q1144.3 82.7 1140.7 90.5Q1137.0 98.2 1128.4 102.3L1128.4 102.3Q1119.3 106.6 1106.7 107.6Q1094.1 108.6 1076.6 108.6L1076.6 108.6Q1075.7 103.6 1073.4 97.3Q1071.1 90.9 1068.4 84.5Q1065.7 78.2 1062.9 73.9L1062.9 73.9Q1070.2 74.3 1078.3 74.5Q1086.3 74.8 1092.9 74.8L1092.9 74.8L1102.0 74.8Q1105.9 74.8 1107.5 73.3Q1109.1 71.8 1109.1 68.4L1109.1 68.4L1109.1 42.3L1018.2 42.3Q1017.5 45.2 1016.8 48.0L1016.8 48.0Q1012.3 65.7 1003.4 81.4Q994.5 97.0 980.2 108.9L980.2 108.9Q977.7 105.5 973.1 100.7Q968.4 95.9 963.3 91.6Q958.2 87.3 954.5 85.0L954.5 85.0Q967.0 74.5 974.3 61.8Q981.6 49.1 985.1 35.2Q988.6 21.4 989.6 7.5Q990.7-6.4 990.7-19.1L990.7-19.1ZM1109.1-11.6L1024.8-11.6Q1024.3-1.1 1023.4 10.2L1023.4 10.2L1109.1 10.2L1109.1-11.6ZM1109.1-64.8L1024.8-64.8L1024.8-43.0L1109.1-43.0L1109.1-64.8Z M1250.0 107.7L1250.0-98.9L1370.5-98.9L1370.5-94.5Q1370.3-90 1370.0-87.0L1370.0-87.0Q1369.4-63.0 1367.3-50.8Q1365.3-38.6 1361.0-33.6Q1356.6-28.6 1350.6-26.8Q1344.6-25 1338.0-24.3L1338.0-24.3Q1331.9-23.9 1322.5-23.9Q1313.2-23.9 1303.0-24.1L1303.0-24.1Q1302.8-30 1300.4-37.7Q1298.0-45.5 1294.8-50.7L1294.8-50.7Q1301.0-50.2 1306.4-50Q1311.9-49.8 1316.3-49.7Q1320.7-49.5 1323.2-49.5L1323.2-49.5Q1326.4-49.5 1328.5-49.9Q1330.5-50.2 1332.1-51.8Q1333.7-53.4 1334.6-58.4L1334.6-58.4Q1335.0-62.0 1335.5-68.4L1335.5-68.4L1282.8-68.4L1282.8-18.6L1348.0-18.6L1353.7-19.5L1374.8-13.4Q1371.0 16.1 1361.4 39.5L1361.4 39.5Q1356.4 51.8 1349.8 62.3L1349.8 62.3Q1363.9 73.6 1381.6 80.7L1381.6 80.7Q1378.0 83.9 1373.7 88.9Q1369.4 93.9 1365.5 99.2Q1361.6 104.5 1359.1 108.9L1359.1 108.9Q1341.6 100.7 1328.2 88.6L1328.2 88.6Q1314.8 101.1 1296.9 110.0L1296.9 110.0Q1293.2 103.9 1286.9 96.6L1286.9 96.6Q1284.8 94.3 1282.8 92.0L1282.8 92.0L1282.8 107.7L1250.0 107.7ZM1169.8 39.5L1163.0 5.7Q1173.7 3.6 1187.1 0.7L1187.1 0.7Q1189.8 0.2 1192.5-0.5L1192.5-0.5L1192.5-33.2L1166.0-33.2L1166.0-65.2L1192.5-65.2L1192.5-107.0L1226.4-107.0L1226.4-65.2L1246.0-65.2L1246.0-33.2L1226.4-33.2L1226.4-8.0Q1235.5-10 1244.4-12.0L1244.4-12.0L1248.5 20.2Q1237.5 23.0 1226.4 25.7L1226.4 25.7L1226.4 73.0Q1226.4 85.0 1223.8 91.8Q1221.2 98.6 1214.1 102.5Q1207.1 106.4 1197.0 107.5Q1186.9 108.6 1173.2 108.4L1173.2 108.4Q1172.3 101.8 1169.5 92.7Q1166.6 83.6 1163.5 77.0L1163.5 77.0Q1170.5 77.3 1177.8 77.4Q1185.0 77.5 1187.5 77.5L1187.5 77.5Q1190.5 77.5 1191.5 76.5Q1192.5 75.5 1192.5 72.7L1192.5 72.7L1192.5 34.1Q1180.5 37.0 1169.8 39.5L1169.8 39.5ZM1307.1 64.1L1307.1 64.1Q1302.1 57.0 1298.0 49.3L1298.0 49.3Q1289.4 33.9 1282.8 15.7L1282.8 15.7L1282.8 80.9Q1293.5 75.5 1302.1 68.4L1302.1 68.4Q1304.6 66.4 1307.1 64.1ZM1337.8 10.7L1312.5 10.7Q1317.5 22.5 1324.4 33.2L1324.4 33.2Q1325.7 35.7 1327.3 38.0L1327.3 38.0Q1331.9 29.3 1335.3 19.3L1335.3 19.3Q1336.6 15.2 1337.8 10.7L1337.8 10.7Z"/></svg>
